HIERARCHY
ROOT Hips
{
 OFFSET 0.000000 0.000000 0.000000
 CHANNELS 6 Xposition Yposition Zposition Yrotation Xrotation Zrotation
 JOINT Chest
 {
  OFFSET 0.000000 9.585900 0.002600
  CHANNELS 3 Yrotation Xrotation Zrotation
  JOINT Chest2
  {
   OFFSET 0.000000 9.601200 -0.005300
   CHANNELS 3 Yrotation Xrotation Zrotation
   JOINT Chest3
   {
    OFFSET 0.000000 9.561800 0.000000
    CHANNELS 3 Yrotation Xrotation Zrotation
    JOINT Chest4
    {
     OFFSET 0.000000 9.552100 0.000000
     CHANNELS 3 Yrotation Xrotation Zrotation
     JOINT Neck
     {
      OFFSET 0.000000 14.453000 0.000000
      CHANNELS 3 Yrotation Xrotation Zrotation
      JOINT Head
      {
       OFFSET 0.000000 8.936500 -0.011300
       CHANNELS 3 Yrotation Xrotation Zrotation
       End Site
       {
        OFFSET 0.000000 17.073600 -0.006000
       }
      }
     }
     JOINT RightCollar
     {
      OFFSET -2.921100 9.558500 0.000000
      CHANNELS 3 Yrotation Xrotation Zrotation
      JOINT RightShoulder
      {
       OFFSET -13.519700 0.000000 0.000000
       CHANNELS 3 Yrotation Xrotation Zrotation
       JOINT RightElbow
       {
        OFFSET 0.000000 -29.696600 0.000000
        CHANNELS 3 Yrotation Xrotation Zrotation
        JOINT RightWrist
        {
         OFFSET 0.000000 -24.004700 0.000000
         CHANNELS 3 Yrotation Xrotation Zrotation
         End Site
         {
          OFFSET 0.000000 -17.728500 0.000000
         }
        }
       }
      }
     }
     JOINT LeftCollar
     {
      OFFSET 2.921100 9.558500 0.000000
      CHANNELS 3 Yrotation Xrotation Zrotation
      JOINT LeftShoulder
      {
       OFFSET 13.519700 0.000000 0.000000
       CHANNELS 3 Yrotation Xrotation Zrotation
       JOINT LeftElbow
       {
        OFFSET 0.000000 -29.696600 0.000000
        CHANNELS 3 Yrotation Xrotation Zrotation
        JOINT LeftWrist
        {
         OFFSET 0.000000 -24.004700 0.000000
         CHANNELS 3 Yrotation Xrotation Zrotation
         End Site
         {
          OFFSET 0.000000 -17.728500 0.000000
         }
        }
       }
      }
     }
    }
   }
  }
 }
 JOINT RightHip
 {
  OFFSET -7.771700 -0.012900 -0.001300
  CHANNELS 3 Yrotation Xrotation Zrotation
  JOINT RightKnee
  {
   OFFSET 0.000000 -40.869800 0.001200
   CHANNELS 3 Yrotation Xrotation Zrotation
   JOINT RightAnkle
   {
    OFFSET 0.000000 -39.717900 0.002100
    CHANNELS 3 Yrotation Xrotation Zrotation
    JOINT RightToe
    {
     OFFSET 0.000000 -4.965400 11.033500
     CHANNELS 3 Yrotation Xrotation Zrotation
     End Site
     {
      OFFSET 0.000000 -1.423100 5.872300
     }
    }
   }
  }
 }
 JOINT LeftHip
 {
  OFFSET 7.771700 -0.012900 -0.001300
  CHANNELS 3 Yrotation Xrotation Zrotation
  JOINT LeftKnee
  {
   OFFSET 0.000000 -40.869800 0.001200
   CHANNELS 3 Yrotation Xrotation Zrotation
   JOINT LeftAnkle
   {
    OFFSET 0.000000 -39.717900 0.002100
    CHANNELS 3 Yrotation Xrotation Zrotation
    JOINT LeftToe
    {
     OFFSET 0.000000 -4.965400 11.033500
     CHANNELS 3 Yrotation Xrotation Zrotation
     End Site
     {
      OFFSET 0.000000 -1.423100 5.872300
     }
    }
   }
  }
 }
}
MOTION
Frames: 7
Frame Time: 0.008333
0.000000 85.388000 0.000000 0.000000 -5.767877 0.000000 0.000000 11.653817 0.000000 0.000000 -5.885947 0.000000 0.000000 -0.000000 0.000000 0.000000 -0.000000 0.000000 0.000000 12.528835 0.000000 0.000000 0.711642 0.000000 0.000000 -0.000000 0.000000 0.000000 0.000000 -90.000000 0.000000 -2.309062 0.000000 0.000000 2.309062 0.000000 0.000000 -0.000000 0.000000 0.000000 -0.000000 90.000000 0.000000 -2.309062 0.000000 0.000000 2.309062 0.000000 0.000000 8.520406 0.000000 0.000000 1.905762 0.000000 -0.000000 -4.658285 0.000000 0.000000 -0.000000 0.000000 0.000000 8.520406 0.000000 0.000000 1.905762 0.000000 -0.000000 -4.658285 0.000000 0.000000 -0.000000 0.000000
-45.334955 54.981625 44.475568 -177.215957 -30.959470 -10.814365 0.467148 16.082332 6.723675 0.102474 9.319764 2.608619 0.093771 11.609758 3.261146 0.118143 9.346917 2.600840 4.431142 22.658718 0.639989 4.646167 -1.340478 -0.322209 0.811356 7.269360 -3.177931 -23.217675 -11.007934 5.696445 -76.221431 -33.520721 95.784799 -2.019680 -9.623057 7.382015 -10.841988 6.600189 -2.195928 10.309569 -9.280477 -2.417816 92.475423 -37.949031 -107.207511 33.556944 -16.962409 8.950750 -17.037963 -35.255928 3.497621 50.788354 86.399188 46.816430 0.779139 -19.988143 2.786278 -0.613233 1.887971 -0.273127 -13.000752 -47.043858 14.253161 176.578089 79.738903 171.173759 -2.706078 -17.903965 3.924083 -0.212142 -0.848216 -0.108226
-45.343546 54.982766 44.470520 -177.189787 -30.981861 -10.807458 0.518534 16.109481 6.730484 0.052378 9.317966 2.605560 0.129171 11.633583 3.268849 0.120409 9.348689 2.603209 4.452583 22.787864 0.721646 4.653081 -1.186534 -0.238398 0.796179 7.427993 -3.157692 -23.199673 -11.029372 5.716893 -76.269318 -33.567124 95.793126 -1.997272 -9.635650 7.375500 -10.891129 6.714918 -2.204029 10.199765 -9.366923 -2.402478 92.453120 -37.945762 -107.210561 33.557088 -16.917746 8.823267 -17.024867 -35.236138 3.462745 50.837447 86.408147 46.863698 0.775460 -19.989644 2.794629 -0.616716 1.883166 -0.270950 -12.982482 -47.014704 14.202232 176.810420 79.751095 171.395126 -2.686879 -17.916687 3.947335 -0.196382 -0.835894 -0.110649
-45.354165 54.984325 44.465817 -177.154406 -31.005668 -10.800739 0.520071 16.133041 6.717951 0.040502 9.325840 2.605298 0.160073 11.652039 3.274348 0.109820 9.343896 2.605963 4.473924 22.913473 0.793334 4.651022 -1.046229 -0.161435 0.793153 7.590185 -3.143452 -23.181972 -11.043209 5.739065 -76.307378 -33.596135 95.805616 -1.987277 -9.640271 7.365230 -10.922772 6.832718 -2.217496 10.103021 -9.440331 -2.394374 92.445427 -37.954009 -107.229084 33.555581 -16.867232 8.706154 -17.004874 -35.212793 3.429151 50.831299 86.419506 46.844885 0.762962 -19.995594 2.825260 -0.622769 1.880977 -0.274220 -12.965265 -46.987046 14.134019 176.818460 79.758071 171.398091 -2.685464 -17.917877 3.961749 -0.190802 -0.833064 -0.110647
-45.363982 54.985780 44.463894 -177.133453 -31.021453 -10.798599 0.525269 16.145910 6.714951 0.056248 9.335147 2.607213 0.206670 11.679011 3.283014 0.072742 9.333041 2.614100 4.477296 23.017262 0.858044 4.641693 -0.922708 -0.091676 0.780479 7.735927 -3.131757 -23.160982 -11.050546 5.759345 -76.332852 -33.602526 95.821224 -1.990129 -9.637376 7.356696 -10.958031 6.933568 -2.230460 10.024236 -9.505706 -2.393573 92.439911 -37.971748 -107.251405 33.558747 -16.818163 8.602903 -16.953679 -35.199597 3.399385 50.687075 86.432662 46.717365 0.740074 -19.992093 2.850267 -0.617539 1.875688 -0.271369 -12.948746 -46.968458 14.082890 176.806961 79.764313 171.384060 -2.677400 -17.918551 3.971782 -0.199649 -0.829112 -0.106314
-45.374952 54.987157 44.464561 -177.126051 -31.032043 -10.789417 0.544967 16.146902 6.714307 0.062979 9.346373 2.610196 0.190656 11.682164 3.283289 0.101909 9.358634 2.614869 4.465008 23.099189 0.917206 4.627262 -0.815989 -0.028198 0.761079 7.865232 -3.122477 -23.142217 -11.051337 5.777937 -76.345597 -33.585883 95.838827 -1.996566 -9.630939 7.355799 -10.995598 7.018065 -2.241735 9.963200 -9.566866 -2.401127 92.432298 -37.996274 -107.276359 33.564498 -16.773317 8.523130 -16.917724 -35.192434 3.377916 50.559808 86.437462 46.590402 0.737078 -19.993576 2.869081 -0.618874 1.880553 -0.275568 -12.920797 -46.954564 14.035378 176.968346 79.778993 171.538634 -2.652585 -17.923624 3.994407 -0.207014 -0.815038 -0.101327
-45.387492 54.990100 44.465182 -177.100946 -31.052278 -10.787002 0.554325 16.155020 6.713200 0.061715 9.361764 2.611651 0.177152 11.685974 3.283638 0.101671 9.362975 2.615376 4.469863 23.190485 0.966964 4.608122 -0.723608 0.030279 0.769896 8.005669 -3.119212 -23.130810 -11.045292 5.794711 -76.343255 -33.557461 95.849768 -2.001853 -9.625747 7.367087 -11.006992 7.062434 -2.248926 9.929109 -9.582320 -2.413331 92.408427 -38.014401 -107.287657 33.560040 -16.776071 8.476276 -16.904732 -35.171178 3.353733 50.425245 86.440010 46.443222 0.744837 -19.991947 2.885766 -0.636111 1.878576 -0.277388 -12.901291 -46.932940 13.976817 176.945275 79.789465 171.513712 -2.653599 -17.911328 4.013815 -0.202272 -0.817271 -0.101149
